<?xml version="1.0" encoding="UTF-8" standalone="no"?>
<!-- Created with Inkscape (http://www.inkscape.org/) -->

<svg
   xmlns:osb="http://www.openswatchbook.org/uri/2009/osb"
   xmlns:dc="http://purl.org/dc/elements/1.1/"
   xmlns:cc="http://creativecommons.org/ns#"
   xmlns:rdf="http://www.w3.org/1999/02/22-rdf-syntax-ns#"
   xmlns:svg="http://www.w3.org/2000/svg"
   xmlns="http://www.w3.org/2000/svg"
   xmlns:sodipodi="http://sodipodi.sourceforge.net/DTD/sodipodi-0.dtd"
   xmlns:inkscape="http://www.inkscape.org/namespaces/inkscape"
   width="810"
   height="1080"
   viewBox="0 0 810.00004 1080"
   id="svg3344"
   version="1.1"
   inkscape:version="0.91 r13725"
   sodipodi:docname="backgroundBoom.svg"
   inkscape:export-filename="C:\Users\Hanako\Desktop\background.png"
   inkscape:export-xdpi="90"
   inkscape:export-ydpi="90">
  <defs
     id="defs3346">
    <inkscape:path-effect
       effect="skeletal"
       id="path-effect3468"
       is_visible="true"
       pattern="m 0,4.999939 c 0,-2.76 2.24,-5.000000035163 5,-5.000000035163 2.76,0 5,2.240000035163 5,5.000000035163 0,2.76 -2.24,5 -5,5 -2.76,0 -5,-2.24 -5,-5 z"
       copytype="single_stretched"
       prop_scale="1"
       scale_y_rel="false"
       spacing="0"
       normal_offset="0"
       tang_offset="0"
       prop_units="false"
       vertical_pattern="false"
       fuse_tolerance="0" />
    <linearGradient
       id="linearGradient5752"
       osb:paint="gradient">
      <stop
         style="stop-color:#000000;stop-opacity:1;"
         offset="0"
         id="stop5754" />
      <stop
         style="stop-color:#000000;stop-opacity:0;"
         offset="1"
         id="stop5756" />
    </linearGradient>
    <linearGradient
       id="linearGradient4312"
       osb:paint="solid">
      <stop
         style="stop-color:#000000;stop-opacity:1;"
         offset="0"
         id="stop4314" />
    </linearGradient>
    <inkscape:path-effect
       effect="skeletal"
       id="path-effect3468-8"
       is_visible="true"
       pattern="m -0.44796625,-20.953538 c 0,-2.76 2.24000005,-5 5.00000005,-5 2.76,0 5,2.24 5,5 0,2.76 -2.24,5 -5,5 -2.76,0 -5.00000005,-2.24 -5.00000005,-5 z"
       copytype="single_stretched"
       prop_scale="1"
       scale_y_rel="false"
       spacing="0"
       normal_offset="0"
       tang_offset="0"
       prop_units="false"
       vertical_pattern="false"
       fuse_tolerance="0" />
    <inkscape:path-effect
       effect="skeletal"
       id="path-effect3468-7"
       is_visible="true"
       pattern="m -1.3282312,-19.640797 c 0,-2.76 2.24000003,-5 5,-5 2.76,0 5,2.24 5,5 0,2.76 -2.24,5 -5,5 -2.75999997,0 -5,-2.24 -5,-5 z"
       copytype="single_stretched"
       prop_scale="1"
       scale_y_rel="false"
       spacing="0"
       normal_offset="0"
       tang_offset="0"
       prop_units="false"
       vertical_pattern="false"
       fuse_tolerance="0" />
    <inkscape:path-effect
       effect="skeletal"
       id="path-effect3468-2"
       is_visible="true"
       pattern="m -0.02017642,-18.543708 c 0,-2.76 2.24000002,-5 5.00000002,-5 2.76,0 5,2.24 5,5 0,2.76 -2.24,5 -5,5 -2.76,0 -5.00000002,-2.24 -5.00000002,-5 z"
       copytype="single_stretched"
       prop_scale="1"
       scale_y_rel="false"
       spacing="0"
       normal_offset="0"
       tang_offset="0"
       prop_units="false"
       vertical_pattern="false"
       fuse_tolerance="0" />
  </defs>
  <sodipodi:namedview
     id="base"
     pagecolor="#ffffff"
     bordercolor="#666666"
     borderopacity="1.0"
     inkscape:pageopacity="1"
     inkscape:pageshadow="2"
     inkscape:zoom="0.30179286"
     inkscape:cx="30.539624"
     inkscape:cy="1148.0483"
     inkscape:document-units="px"
     inkscape:current-layer="layer8"
     showgrid="false"
     units="px"
     inkscape:window-width="1280"
     inkscape:window-height="962"
     inkscape:window-x="-8"
     inkscape:window-y="-8"
     inkscape:window-maximized="1" />
  <metadata
     id="metadata3349">
    <rdf:RDF>
      <cc:Work
         rdf:about="">
        <dc:format>image/svg+xml</dc:format>
        <dc:type
           rdf:resource="http://purl.org/dc/dcmitype/StillImage" />
        <dc:title />
        <cc:license
           rdf:resource="http://creativecommons.org/licenses/by/3.0/" />
      </cc:Work>
      <cc:License
         rdf:about="http://creativecommons.org/licenses/by/3.0/">
        <cc:permits
           rdf:resource="http://creativecommons.org/ns#Reproduction" />
        <cc:permits
           rdf:resource="http://creativecommons.org/ns#Distribution" />
        <cc:requires
           rdf:resource="http://creativecommons.org/ns#Notice" />
        <cc:requires
           rdf:resource="http://creativecommons.org/ns#Attribution" />
        <cc:permits
           rdf:resource="http://creativecommons.org/ns#DerivativeWorks" />
      </cc:License>
    </rdf:RDF>
  </metadata>
  <g
     inkscape:groupmode="layer"
     id="layer2"
     inkscape:label="floor"
     style="display:inline">
    <rect
       style="fill:#ffffff;fill-opacity:1;stroke:none"
       id="rect3167"
       width="2480.5308"
       height="1524.5223"
       x="-742.46222"
       y="-219.01588"
       transform="translate(0,27.637839)" />
    <path
       transform="translate(0,27.637839)"
       style="fill:#000000;fill-rule:evenodd;stroke:#000000;stroke-width:0.98880935px;stroke-linecap:butt;stroke-linejoin:miter;stroke-opacity:1"
       d="m -523.16316,403.75582 1941.52006,0"
       id="path3352"
       inkscape:connector-curvature="0" />
    <path
       transform="translate(0,27.637839)"
       style="fill:#000000;fill-rule:evenodd;stroke:#000000;stroke-width:1px;stroke-linecap:butt;stroke-linejoin:miter;stroke-opacity:1"
       d="m -521.04978,450.31124 1985.71438,0"
       id="path3352-8"
       inkscape:connector-curvature="0" />
    <path
       transform="translate(0,27.637839)"
       style="fill:#000000;fill-rule:evenodd;stroke:#000000;stroke-width:1px;stroke-linecap:butt;stroke-linejoin:miter;stroke-opacity:1"
       d="m -504.88734,516.98132 1985.71444,0"
       id="path3352-5"
       inkscape:connector-curvature="0" />
    <path
       transform="translate(0,27.637839)"
       style="fill:#000000;fill-rule:evenodd;stroke:#000000;stroke-width:1.00028324px;stroke-linecap:butt;stroke-linejoin:miter;stroke-opacity:1"
       d="m -503.99204,605.87475 1986.83944,0"
       id="path3352-7"
       inkscape:connector-curvature="0" />
    <path
       transform="translate(0,27.637839)"
       style="fill:#000000;fill-rule:evenodd;stroke:#000000;stroke-width:1px;stroke-linecap:butt;stroke-linejoin:miter;stroke-opacity:1"
       d="m -504.88734,698.80879 1985.71444,0"
       id="path3352-52"
       inkscape:connector-curvature="0" />
    <path
       transform="translate(0,27.637839)"
       style="fill:#000000;fill-rule:evenodd;stroke:#000000;stroke-width:1px;stroke-linecap:butt;stroke-linejoin:miter;stroke-opacity:1"
       d="m -517.00917,801.84437 1985.71437,0"
       id="path3352-2"
       inkscape:connector-curvature="0" />
    <path
       transform="translate(0,27.637839)"
       style="fill:#000000;fill-rule:evenodd;stroke:#000000;stroke-width:1px;stroke-linecap:butt;stroke-linejoin:miter;stroke-opacity:1"
       d="m -525.09039,927.1033 1985.71439,0"
       id="path3352-26"
       inkscape:connector-curvature="0" />
    <path
       transform="translate(0,27.637839)"
       style="fill:none;stroke:#000000;stroke-width:1px;stroke-linecap:butt;stroke-linejoin:miter;stroke-opacity:1"
       d="M -257.52278,1062.4636 407.1576,98.7781 l 658.6195,959.645"
       id="path3405"
       inkscape:connector-curvature="0" />
    <path
       transform="translate(0,27.637839)"
       style="fill:none;stroke:#000000;stroke-width:1px;stroke-linecap:butt;stroke-linejoin:miter;stroke-opacity:1"
       d="m 405.13729,94.73749 -0.0253,1061.17791"
       id="path3407"
       inkscape:connector-curvature="0"
       sodipodi:nodetypes="cc" />
    <path
       transform="translate(0,27.637839)"
       style="fill:none;stroke:#000000;stroke-width:1px;stroke-linecap:butt;stroke-linejoin:miter;stroke-opacity:1"
       d="M -629.25892,890.73769 403.11699,98.7781 1661.7672,953.36727"
       id="path3502"
       inkscape:connector-curvature="0" />
    <path
       transform="translate(0,27.637839)"
       style="fill:none;stroke:#000000;stroke-width:1px;stroke-linecap:butt;stroke-linejoin:miter;stroke-opacity:1"
       d="M -871.69553,658.40261 405.13729,100.7984 1833.4931,662.4433"
       id="path3504"
       inkscape:connector-curvature="0" />
  </g>
  <g
     inkscape:groupmode="layer"
     id="layer8"
     inkscape:label="sky"
     style="display:inline">
    <rect
       style="display:inline;opacity:1;fill:#80b3ff;fill-opacity:1;stroke:#000000;stroke-width:1;stroke-miterlimit:4;stroke-dasharray:none;stroke-opacity:1"
       id="rect3683"
       width="2531.5212"
       height="860.66406"
       x="-738.47107"
       y="-442.10043" />
    <ellipse
       style="display:inline;fill:#ffffff;fill-opacity:1;stroke:none"
       id="path5806-5"
       cx="-302.15939"
       cy="-1.7098141"
       rx="44.790535"
       ry="18.396114" />
    <ellipse
       style="display:inline;fill:#ffffff;fill-opacity:1;stroke:none"
       id="path5812-3"
       cx="-278.16446"
       cy="20.685453"
       rx="49.589523"
       ry="18.396114" />
    <ellipse
       style="display:inline;fill:#ffffff;fill-opacity:1;stroke:none"
       id="path5814-0"
       cx="-223.776"
       cy="-1.7098141"
       rx="57.587833"
       ry="18.396114" />
    <ellipse
       style="display:inline;fill:#ffffff;fill-opacity:1;stroke:none"
       id="path5816-44"
       cx="-179.78528"
       cy="11.087492"
       rx="47.190029"
       ry="10.397803" />
    <ellipse
       style="display:inline;fill:#ffffff;fill-opacity:1;stroke:none"
       id="path5818-29"
       cx="50.822964"
       cy="-11.322378"
       rx="55.988171"
       ry="12.797297" />
    <ellipse
       style="display:inline;fill:#ffffff;fill-opacity:1;stroke:none"
       id="path5820-2"
       cx="66.019737"
       cy="6.2739048"
       rx="53.588676"
       ry="9.5979719" />
    <ellipse
       style="display:inline;fill:#ffffff;fill-opacity:1;stroke:none"
       id="path5822-0"
       cx="31.627041"
       cy="19.071199"
       rx="52.788845"
       ry="27.194256" />
    <ellipse
       style="display:inline;fill:#ffffff;fill-opacity:1;stroke:none"
       id="path5824-8"
       cx="102.81197"
       cy="22.270525"
       rx="67.985641"
       ry="14.396959" />
    <ellipse
       style="display:inline;fill:#ffffff;fill-opacity:1;stroke:none"
       id="path5826-2"
       cx="-101.94474"
       cy="71.060219"
       rx="61.586987"
       ry="13.597128" />
    <ellipse
       style="display:inline;fill:#ffffff;fill-opacity:1;stroke:none"
       id="path5828-0"
       cx="-99.545265"
       cy="53.463932"
       rx="43.190876"
       ry="18.396114" />
    <ellipse
       style="display:inline;fill:#ffffff;fill-opacity:1;stroke:none"
       id="path5830-1"
       cx="-73.150826"
       cy="80.658203"
       rx="35.992397"
       ry="10.397803" />
    <ellipse
       style="display:inline;fill:#ffffff;fill-opacity:1;stroke:none"
       id="path5832-6"
       cx="182.79509"
       cy="95.854973"
       rx="40.791382"
       ry="9.5979719" />
    <ellipse
       style="display:inline;fill:#ffffff;fill-opacity:1;stroke:none"
       id="path5834-6"
       cx="226.78581"
       cy="85.457184"
       rx="31.99324"
       ry="10.397803" />
    <ellipse
       style="display:inline;fill:#ffffff;fill-opacity:1;stroke:none"
       id="path5836-4"
       cx="214.78831"
       cy="109.45212"
       rx="24.794762"
       ry="8.7981415" />
    <ellipse
       style="display:inline;fill:#ffffff;fill-opacity:1;stroke:none"
       id="path5838-9"
       cx="173.99693"
       cy="78.258698"
       rx="33.592903"
       ry="11.197634" />
    <ellipse
       style="display:inline;fill:#ffffff;fill-opacity:1;stroke:none"
       id="path5806-6-9"
       cx="309.61591"
       cy="-0.32543004"
       rx="44.790539"
       ry="18.396116" />
    <ellipse
       style="display:inline;fill:#ffffff;fill-opacity:1;stroke:none"
       id="path5812-2-2"
       cx="333.61084"
       cy="22.069838"
       rx="49.589527"
       ry="18.396116" />
    <ellipse
       style="display:inline;fill:#ffffff;fill-opacity:1;stroke:none"
       id="path5814-8-1"
       cx="387.99939"
       cy="-0.32543004"
       rx="57.587837"
       ry="18.396116" />
    <ellipse
       style="display:inline;fill:#ffffff;fill-opacity:1;stroke:none"
       id="path5816-5-7"
       cx="431.99011"
       cy="12.471876"
       rx="47.190033"
       ry="10.397804" />
    <ellipse
       style="display:inline;fill:#ffffff;fill-opacity:1;stroke:none"
       id="path5818-0-5"
       cx="662.59833"
       cy="-9.937994"
       rx="55.988174"
       ry="12.797298" />
    <ellipse
       style="display:inline;fill:#ffffff;fill-opacity:1;stroke:none"
       id="path5820-1-7"
       cx="677.79517"
       cy="7.6582928"
       rx="53.58868"
       ry="9.5979729" />
    <ellipse
       style="display:inline;fill:#ffffff;fill-opacity:1;stroke:none"
       id="path5822-5-0"
       cx="643.4024"
       cy="20.455595"
       rx="52.788849"
       ry="27.19426" />
    <ellipse
       style="display:inline;fill:#ffffff;fill-opacity:1;stroke:none"
       id="path5824-6-5"
       cx="714.5874"
       cy="23.654921"
       rx="67.985649"
       ry="14.396961" />
    <ellipse
       style="display:inline;fill:#ffffff;fill-opacity:1;stroke:none"
       id="path5826-8-3"
       cx="509.83063"
       cy="72.444618"
       rx="61.58699"
       ry="13.59713" />
    <ellipse
       style="display:inline;fill:#ffffff;fill-opacity:1;stroke:none"
       id="path5828-6-4"
       cx="512.2301"
       cy="54.848331"
       rx="43.19088"
       ry="18.396116" />
    <ellipse
       style="display:inline;fill:#ffffff;fill-opacity:1;stroke:none"
       id="path5830-0-0"
       cx="538.62451"
       cy="82.042618"
       rx="35.992401"
       ry="10.397804" />
    <ellipse
       style="display:inline;fill:#ffffff;fill-opacity:1;stroke:none"
       id="path5832-2-0"
       cx="794.57037"
       cy="97.23938"
       rx="40.791386"
       ry="9.5979729" />
    <ellipse
       style="display:inline;fill:#ffffff;fill-opacity:1;stroke:none"
       id="path5834-8-3"
       cx="838.5611"
       cy="86.841599"
       rx="31.993242"
       ry="10.397804" />
    <ellipse
       style="display:inline;fill:#ffffff;fill-opacity:1;stroke:none"
       id="path5836-0-5"
       cx="826.56366"
       cy="110.83653"
       rx="24.794764"
       ry="8.7981424" />
    <ellipse
       style="display:inline;fill:#ffffff;fill-opacity:1;stroke:none"
       id="path5838-2-4"
       cx="785.77234"
       cy="79.64312"
       rx="33.592907"
       ry="11.197635" />
    <ellipse
       style="display:inline;fill:#ffffff;fill-opacity:1;stroke:none"
       id="path5806-63-7"
       cx="912.61212"
       cy="-0.32543004"
       rx="44.790539"
       ry="18.396116" />
    <ellipse
       style="display:inline;fill:#ffffff;fill-opacity:1;stroke:none"
       id="path5812-5-4"
       cx="936.60699"
       cy="22.069838"
       rx="49.589527"
       ry="18.396116" />
    <ellipse
       style="display:inline;fill:#ffffff;fill-opacity:1;stroke:none"
       id="path5814-1-4"
       cx="990.99554"
       cy="-0.32543004"
       rx="57.587837"
       ry="18.396116" />
    <ellipse
       style="display:inline;fill:#ffffff;fill-opacity:1;stroke:none"
       id="path5816-4-5"
       cx="1034.9863"
       cy="12.471876"
       rx="47.190033"
       ry="10.397804" />
    <ellipse
       style="display:inline;fill:#ffffff;fill-opacity:1;stroke:none"
       id="path5818-2-2"
       cx="1265.5945"
       cy="-9.937994"
       rx="55.988174"
       ry="12.797298" />
    <ellipse
       style="display:inline;fill:#ffffff;fill-opacity:1;stroke:none"
       id="path5820-6-0"
       cx="1280.7913"
       cy="7.6582928"
       rx="53.58868"
       ry="9.5979729" />
    <ellipse
       style="display:inline;fill:#ffffff;fill-opacity:1;stroke:none"
       id="path5822-6-9"
       cx="1246.3986"
       cy="20.45558"
       rx="52.788849"
       ry="27.19426" />
    <ellipse
       style="display:inline;fill:#ffffff;fill-opacity:1;stroke:none"
       id="path5824-2-8"
       cx="1317.5835"
       cy="23.654905"
       rx="67.985649"
       ry="14.396961" />
    <ellipse
       style="display:inline;fill:#ffffff;fill-opacity:1;stroke:none"
       id="path5826-1-4"
       cx="1112.8268"
       cy="72.444618"
       rx="61.58699"
       ry="13.59713" />
    <ellipse
       style="display:inline;fill:#ffffff;fill-opacity:1;stroke:none"
       id="path5828-9-8"
       cx="1115.2263"
       cy="54.848331"
       rx="43.19088"
       ry="18.396116" />
    <ellipse
       style="display:inline;fill:#ffffff;fill-opacity:1;stroke:none"
       id="path5830-5-2"
       cx="1141.6207"
       cy="82.042603"
       rx="35.992401"
       ry="10.397804" />
    <ellipse
       style="display:inline;fill:#ffffff;fill-opacity:1;stroke:none"
       id="path5832-21-9"
       cx="1397.5667"
       cy="97.23938"
       rx="40.791386"
       ry="9.5979729" />
    <ellipse
       style="display:inline;fill:#ffffff;fill-opacity:1;stroke:none"
       id="path5834-3-2"
       cx="1441.5574"
       cy="86.841583"
       rx="31.993242"
       ry="10.397804" />
    <ellipse
       style="display:inline;fill:#ffffff;fill-opacity:1;stroke:none"
       id="path5836-8-9"
       cx="1429.5599"
       cy="110.83653"
       rx="24.794764"
       ry="8.7981424" />
    <ellipse
       style="display:inline;fill:#ffffff;fill-opacity:1;stroke:none"
       id="path5838-3-3"
       cx="1388.7686"
       cy="79.643097"
       rx="33.592907"
       ry="11.197635" />
    <path
       style="display:inline;fill:#333333;fill-opacity:1;stroke:none"
       d="m 597.06272,123.10325 c 0.49505,-0.28869 0.93663,-0.53682 1.46875,-0.85351 0.3368,-0.20041 -0.71087,0.33674 -1.03907,0.55078 -0.20537,0.13393 -0.30921,0.21371 -0.42968,0.30273 z"
       id="path3703-5"
       inkscape:connector-curvature="0" />
    <path
       style="display:inline;fill:#aaccff;fill-opacity:1;stroke:none"
       d="m -320.50767,26.048551 c -0.005,0.003 -0.0234,0.01 -0.0234,0.01 l 0.0391,0.01 c -0.005,-0.006 -0.0106,-0.0134 -0.0156,-0.0195 z"
       id="rect4310-6"
       inkscape:connector-curvature="0" />
  </g>
  <g
     inkscape:groupmode="layer"
     id="layer6"
     inkscape:label="cloud"
     style="display:inline">
    <ellipse
       style="display:inline;fill:#ffffff;fill-opacity:1;stroke:none"
       id="path5806"
       cx="-306.69864"
       cy="142.61267"
       rx="44.790531"
       ry="18.396112" />
    <ellipse
       style="display:inline;fill:#ffffff;fill-opacity:1;stroke:none"
       id="path5812"
       cx="-282.7037"
       cy="165.00793"
       rx="49.58952"
       ry="18.396112" />
    <ellipse
       style="display:inline;fill:#ffffff;fill-opacity:1;stroke:none"
       id="path5814"
       cx="-228.31522"
       cy="142.61267"
       rx="57.58783"
       ry="18.396112" />
    <ellipse
       style="display:inline;fill:#ffffff;fill-opacity:1;stroke:none"
       id="path5816"
       cx="-184.32449"
       cy="155.40997"
       rx="47.190025"
       ry="10.397802" />
    <ellipse
       style="display:inline;fill:#ffffff;fill-opacity:1;stroke:none"
       id="path5818"
       cx="550.28369"
       cy="105.36227"
       rx="55.988167"
       ry="12.797295"
       transform="translate(-504,27.637839)" />
    <ellipse
       style="display:inline;fill:#ffffff;fill-opacity:1;stroke:none"
       id="path5820"
       cx="565.48047"
       cy="122.95855"
       rx="53.588673"
       ry="9.597971"
       transform="translate(-504,27.637839)" />
    <ellipse
       style="display:inline;fill:#ffffff;fill-opacity:1;stroke:none"
       id="path5822"
       cx="531.08777"
       cy="135.75584"
       rx="52.788841"
       ry="27.194252"
       transform="translate(-504,27.637839)" />
    <ellipse
       style="display:inline;fill:#ffffff;fill-opacity:1;stroke:none"
       id="path5824"
       cx="602.27271"
       cy="138.95517"
       rx="67.985634"
       ry="14.396957"
       transform="translate(-504,27.637839)" />
    <ellipse
       style="display:inline;fill:#ffffff;fill-opacity:1;stroke:none"
       id="path5826"
       cx="397.51599"
       cy="187.74486"
       rx="61.586983"
       ry="13.597126"
       transform="translate(-504,27.637839)" />
    <ellipse
       style="display:inline;fill:#ffffff;fill-opacity:1;stroke:none"
       id="path5828"
       cx="399.91547"
       cy="170.14857"
       rx="43.190872"
       ry="18.396112"
       transform="translate(-504,27.637839)" />
    <ellipse
       style="display:inline;fill:#ffffff;fill-opacity:1;stroke:none"
       id="path5830"
       cx="426.30991"
       cy="197.34283"
       rx="35.992393"
       ry="10.397802"
       transform="translate(-504,27.637839)" />
    <ellipse
       style="display:inline;fill:#ffffff;fill-opacity:1;stroke:none"
       id="path5832"
       cx="682.2558"
       cy="212.53961"
       rx="40.791378"
       ry="9.597971"
       transform="translate(-504,27.637839)" />
    <ellipse
       style="display:inline;fill:#ffffff;fill-opacity:1;stroke:none"
       id="path5834"
       cx="726.24652"
       cy="202.14182"
       rx="31.993238"
       ry="10.397802"
       transform="translate(-504,27.637839)" />
    <ellipse
       style="display:inline;fill:#ffffff;fill-opacity:1;stroke:none"
       id="path5836"
       cx="714.24902"
       cy="226.13675"
       rx="24.79476"
       ry="8.7981405"
       transform="translate(-504,27.637839)" />
    <ellipse
       style="display:inline;fill:#ffffff;fill-opacity:1;stroke:none"
       id="path5838"
       cx="673.45764"
       cy="194.94333"
       rx="33.592899"
       ry="11.197633"
       transform="translate(-504,27.637839)" />
    <ellipse
       style="display:inline;fill:#ffffff;fill-opacity:1;stroke:none"
       id="path5806-6"
       cx="305.07663"
       cy="143.99706"
       rx="44.790535"
       ry="18.396114" />
    <ellipse
       style="display:inline;fill:#ffffff;fill-opacity:1;stroke:none"
       id="path5812-2"
       cx="329.07156"
       cy="166.39232"
       rx="49.589523"
       ry="18.396114" />
    <ellipse
       style="display:inline;fill:#ffffff;fill-opacity:1;stroke:none"
       id="path5814-8"
       cx="383.46008"
       cy="143.99706"
       rx="57.587833"
       ry="18.396114" />
    <ellipse
       style="display:inline;fill:#ffffff;fill-opacity:1;stroke:none"
       id="path5816-5"
       cx="427.45081"
       cy="156.79436"
       rx="47.190029"
       ry="10.397803" />
    <ellipse
       style="display:inline;fill:#ffffff;fill-opacity:1;stroke:none"
       id="path5818-0"
       cx="658.05902"
       cy="134.38449"
       rx="55.988171"
       ry="12.797297" />
    <ellipse
       style="display:inline;fill:#ffffff;fill-opacity:1;stroke:none"
       id="path5820-1"
       cx="673.2558"
       cy="151.98077"
       rx="53.588676"
       ry="9.5979719" />
    <ellipse
       style="display:inline;fill:#ffffff;fill-opacity:1;stroke:none"
       id="path5822-5"
       cx="638.8631"
       cy="164.77808"
       rx="52.788845"
       ry="27.194256" />
    <ellipse
       style="display:inline;fill:#ffffff;fill-opacity:1;stroke:none"
       id="path5824-6"
       cx="710.04803"
       cy="167.9774"
       rx="67.985641"
       ry="14.396959" />
    <ellipse
       style="display:inline;fill:#ffffff;fill-opacity:1;stroke:none"
       id="path5826-8"
       cx="505.29132"
       cy="216.76709"
       rx="61.586987"
       ry="13.597128" />
    <ellipse
       style="display:inline;fill:#ffffff;fill-opacity:1;stroke:none"
       id="path5828-6"
       cx="507.6908"
       cy="199.17081"
       rx="43.190876"
       ry="18.396114" />
    <ellipse
       style="display:inline;fill:#ffffff;fill-opacity:1;stroke:none"
       id="path5830-0"
       cx="534.08521"
       cy="226.36508"
       rx="35.992397"
       ry="10.397803" />
    <ellipse
       style="display:inline;fill:#ffffff;fill-opacity:1;stroke:none"
       id="path5832-2"
       cx="790.03113"
       cy="241.56184"
       rx="40.791382"
       ry="9.5979719" />
    <ellipse
       style="display:inline;fill:#ffffff;fill-opacity:1;stroke:none"
       id="path5834-8"
       cx="834.02185"
       cy="231.16406"
       rx="31.99324"
       ry="10.397803" />
    <ellipse
       style="display:inline;fill:#ffffff;fill-opacity:1;stroke:none"
       id="path5836-0"
       cx="822.02435"
       cy="255.159"
       rx="24.794762"
       ry="8.7981415" />
    <ellipse
       style="display:inline;fill:#ffffff;fill-opacity:1;stroke:none"
       id="path5838-2"
       cx="781.23297"
       cy="223.96558"
       rx="33.592903"
       ry="11.197634" />
    <ellipse
       style="display:inline;fill:#ffffff;fill-opacity:1;stroke:none"
       id="path5806-63"
       cx="908.07281"
       cy="143.99706"
       rx="44.790535"
       ry="18.396114" />
    <ellipse
       style="display:inline;fill:#ffffff;fill-opacity:1;stroke:none"
       id="path5812-5"
       cx="932.06775"
       cy="166.39232"
       rx="49.589523"
       ry="18.396114" />
    <ellipse
       style="display:inline;fill:#ffffff;fill-opacity:1;stroke:none"
       id="path5814-1"
       cx="986.45624"
       cy="143.99706"
       rx="57.587833"
       ry="18.396114" />
    <ellipse
       style="display:inline;fill:#ffffff;fill-opacity:1;stroke:none"
       id="path5816-4"
       cx="1030.447"
       cy="156.79436"
       rx="47.190029"
       ry="10.397803" />
    <ellipse
       style="display:inline;fill:#ffffff;fill-opacity:1;stroke:none"
       id="path5818-2"
       cx="1261.0552"
       cy="134.38449"
       rx="55.988171"
       ry="12.797297" />
    <ellipse
       style="display:inline;fill:#ffffff;fill-opacity:1;stroke:none"
       id="path5820-6"
       cx="1276.252"
       cy="151.98077"
       rx="53.588676"
       ry="9.5979719" />
    <ellipse
       style="display:inline;fill:#ffffff;fill-opacity:1;stroke:none"
       id="path5822-6"
       cx="1241.8593"
       cy="164.77806"
       rx="52.788845"
       ry="27.194256" />
    <ellipse
       style="display:inline;fill:#ffffff;fill-opacity:1;stroke:none"
       id="path5824-2"
       cx="1313.0442"
       cy="167.97739"
       rx="67.985641"
       ry="14.396959" />
    <ellipse
       style="display:inline;fill:#ffffff;fill-opacity:1;stroke:none"
       id="path5826-1"
       cx="1108.2875"
       cy="216.76709"
       rx="61.586987"
       ry="13.597128" />
    <ellipse
       style="display:inline;fill:#ffffff;fill-opacity:1;stroke:none"
       id="path5828-9"
       cx="1110.687"
       cy="199.17081"
       rx="43.190876"
       ry="18.396114" />
    <ellipse
       style="display:inline;fill:#ffffff;fill-opacity:1;stroke:none"
       id="path5830-5"
       cx="1137.0814"
       cy="226.36507"
       rx="35.992397"
       ry="10.397803" />
    <ellipse
       style="display:inline;fill:#ffffff;fill-opacity:1;stroke:none"
       id="path5832-21"
       cx="1393.0273"
       cy="241.56184"
       rx="40.791382"
       ry="9.5979719" />
    <ellipse
       style="display:inline;fill:#ffffff;fill-opacity:1;stroke:none"
       id="path5834-3"
       cx="1437.0181"
       cy="231.16405"
       rx="31.99324"
       ry="10.397803" />
    <ellipse
       style="display:inline;fill:#ffffff;fill-opacity:1;stroke:none"
       id="path5836-8"
       cx="1425.0206"
       cy="255.159"
       rx="24.794762"
       ry="8.7981415" />
    <ellipse
       style="display:inline;fill:#ffffff;fill-opacity:1;stroke:none"
       id="path5838-3"
       cx="1384.2292"
       cy="223.96556"
       rx="33.592903"
       ry="11.197634" />
  </g>
  <g
     inkscape:groupmode="layer"
     id="layer5"
     inkscape:label="wall"
     style="display:inline">
    <path
       style="fill:#00112b;fill-opacity:1"
       d="m 1418.4219,296.09564 0,1.81055 c 12.0122,6.15623 18.5393,9.34127 18.6738,9.08984 0.1367,-0.25554 -6.4081,-4.06775 -18.6738,-10.90039 z"
       id="path3499"
       inkscape:connector-curvature="0" />
    <path
       style="fill:#00112b;fill-opacity:1"
       d="m 1418.4219,297.90619 c -18.7597,-9.61431 -51.1636,-26.62254 -95.5391,-50.23242 -30.0032,16.7563 -65.6775,36.64129 -106.1074,59.14844 -27.1716,-10.57237 -56.4427,-21.97612 -87.6504,-34.14649 -34.0407,18.33753 -70.44,37.91735 -109.1445,58.71094 -40.93765,-24.07012 -84.49263,-49.6929 -130.25394,-76.62695 -37.28827,17.9787 -76.5116,36.88744 -116.55859,56.1914 -25.14969,-9.53105 -50.78266,-19.24994 -76.89258,-29.15429 -20.31179,11.24259 -40.90977,22.63474 -61.81445,34.1875 -9.6074,-8.81555 -19.28281,-17.69569 -29.0293,-26.64258 -15.04996,10.3809 -30.24049,20.85369 -45.58203,31.42578 -6.7939,-11.71404 -13.62877,-23.50404 -20.50586,-35.37696 -4.52359,8.43558 -9.06688,16.90401 -13.63281,25.41016 -0.86372,-25.42965 -1.73534,-51.12038 -2.61719,-77.10547 -7.8448,17.88524 -15.74128,35.88942 -23.70117,54.04492 -3.49715,-8.0309 -7.0047,-16.08608 -10.52344,-24.16796 -5.2633,16.7879 -10.54319,33.63284 -15.86914,50.62109 -10.69254,-19.97709 -21.4367,-40.04667 -32.2832,-60.30664 -5.8187,8.30598 -11.65103,16.63116 -17.50196,24.98633 -14.4694,-6.79842 -28.94765,-13.59827 -43.54296,-20.45508 -13.14472,5.33305 -26.34248,10.68612 -39.58204,16.05664 -9.57156,-3.60782 -19.16446,-7.22327 -28.7832,-10.84961 -6.29611,3.96432 -12.60054,7.93471 -18.91797,11.91211 -14.45239,9.09912 -28.88423,18.18267 -43.22265,27.20898 -10.61528,-12.48186 -21.19441,-24.92207 -31.72266,-37.30273 -15.08829,11.61584 -30.09439,23.16795 -45.02734,34.66211 -13.10813,-13.69255 -26.12102,-27.28507 -39.08594,-40.82422 -7.33204,15.68929 -14.61529,31.27622 -21.86328,46.79297 -4.78003,-13.87294 -9.53049,-27.67011 -14.257816,-41.40625 C 79.38702,275.43217 61.706959,286.10861 44.158203,296.70502 30.995399,263.04377 18.057048,229.97299 5.2695312,197.31244 -10.042045,230.67655 -25.07939,263.4388 -39.853516,295.62494 c -8.142004,-17.77469 -16.189712,-35.3516 -24.152343,-52.74805 -10.798508,14.12249 -21.473882,28.08859 -32.03711,41.91211 -1.72184,-10.8027 -3.431931,-21.52768 -5.130861,-32.17578 -6.17798,11.83487 -12.30105,23.55627 -18.36914,35.16797 -15.42118,-29.1768 -30.41369,-57.53971 -45.07422,-85.27148 -10.03575,23.36679 -19.83063,46.1845 -29.40429,68.5 -4.79371,-19.60285 -9.4744,-38.79903 -14.04493,-57.60743 -18.01639,11.13302 -35.58276,21.97026 -52.71679,32.52149 -22.35293,-27.03625 -43.63188,-52.78981 -63.81641,-77.23633 -70.4839,35.33872 -130.6352,65.34172 -179.90625,89.78906 l 0,173.00586 1922.92776,0 0,-133.57617 z"
       id="path3497"
       inkscape:connector-curvature="0" />
  </g>
  <g
     inkscape:groupmode="layer"
     id="layer7"
     inkscape:label="frame"
     style="display:inline">
    <path
       style="display:inline;fill:#502d16;fill-opacity:1;stroke:none"
       d="m 629.38672,315.54486 c -4.78334,-4.38933 -9.6102,-8.8186 -14.42774,-13.24023 -0.0495,2.05228 -0.20292,4.09272 -0.50781,6.14258 -0.5853,3.60354 -0.86413,7.2427 -1.01953,10.88671 -0.4845,3.25294 0.34859,6.44095 0.43359,9.66016 -0.1273,2.77036 -0.32092,5.53457 -0.41992,8.30664 -0.0939,3.13965 -0.0994,6.28109 -0.10937,9.42188 -5e-4,3.20227 -0.002,6.40515 -0.002,9.60742 -5e-4,3.20043 -2e-4,6.40112 0,9.60156 10e-5,3.19934 0,6.39831 0,9.59766 -0.1015,3.17608 0.23708,6.38092 -0.2246,9.53125 -0.7991,3.33962 -0.50019,6.68766 -0.20899,10.06054 0.2769,3.07259 0.35625,6.15718 0.40625,9.24024 0.043,3.18516 0.0341,6.37131 0.0332,9.55664 0,2.0185 -3e-5,4.03619 0,6.05469 -0.0569,0.56681 -0.12842,1.13018 -0.24218,1.68945 -0.7365,2.74413 -1.03725,5.56232 -1.21875,8.38867 -0.0823,1.93115 -0.0389,1.0262 -0.12891,2.71875 l 11.31836,-5.70898 c 0.0488,-1.6606 0.0145,-0.77046 0.11719,-2.66797 0.0758,-0.95354 0.18232,-1.90221 0.30468,-2.84766 l 1.10547,-0.5625 c 3e-4,-2.13309 -5e-4,-1.06608 0,-3.19922 l 0,-3.11718 c 0.2013,-2.44777 0.22584,-4.91609 0.8086,-7.31836 0.7128,-2.88088 1.70611,-5.68965 1.97461,-8.66797 0.4983,-3.22127 0.45134,-6.44498 0.40234,-9.69922 -0.004,-3.18565 -0.0139,-6.37128 0.0371,-9.55664 0.0687,-2.97501 0.15932,-5.9611 0.66602,-8.90039 0.53168,-2.89517 1.16749,-5.7575 0.90429,-8.72852 l 0,-9.59765 c 0,-3.1993 -10e-5,-6.39836 0,-9.59766 0,-3.19953 7e-4,-6.39813 0,-9.59766 0,-3.20169 -0.01,-6.40378 -0.01,-9.60547 -0.002,-2.61691 -0.003,-5.23442 0.008,-7.85156 z"
       id="path3672"
       inkscape:connector-curvature="0" />
    <path
       style="display:inline;fill:#502d16;fill-opacity:1;stroke:none"
       d="m 424.17188,278.60932 c -0.76316,1.08974 -1.52137,2.17102 -2.28516,3.26171 -5.28302,-2.48221 -10.60784,-4.98313 -15.89844,-7.46875 -0.24252,1.37415 -0.48176,2.74849 -0.63086,4.13868 0.003,3.15611 -0.009,6.31484 0.21485,9.46484 0.27132,2.86204 0.73254,5.6953 1.93359,8.33594 0.83677,2.2023 1.55263,4.48481 2.16992,6.76562 l -4.07617,2.15039 c 0.83388,4.77794 1.82346,9.51777 2.42969,14.33594 0.5621,2.44046 0.98319,4.89869 1.30859,7.37109 0.0618,0.97089 0.10866,1.82323 0.14258,2.32227 0.27243,3.77272 0.42602,7.5501 0.54101,11.33008 -0.13891,1.11674 -0.38685,2.21685 -0.8496,3.27929 -1.28996,2.44111 -1.72429,5.12856 -1.99415,7.83985 -0.0146,1.46957 0.37892,2.80794 0.91602,4.10351 -0.27757,2.4774 -0.51499,4.96182 -0.9707,7.41602 -0.30325,3.20148 -0.11218,6.42359 -0.0508,9.63476 0.12423,2.53212 0.32213,5.06985 0.87695,7.54688 -0.4422,1.12857 -0.80892,2.28526 -1.02734,3.50195 -0.40655,2.20064 -0.5977,4.44245 -0.96485,6.65039 0.13376,2.08499 0.72635,4.1546 1.56641,6.06055 0.78887,2.03842 1.17606,4.181 1.39844,6.3457 -0.0655,0.58939 -0.12322,1.17946 -0.14844,1.77344 0.21542,2.61791 0.59071,5.20819 1.29297,7.74219 0.005,0.53205 -0.005,1.06429 -0.0547,1.59961 -0.23308,4.90668 -0.56335,9.81659 -1.29492,14.67773 l 1.62109,-0.79687 c -0.18517,1.88409 -0.30847,3.77301 -0.17187,5.67578 l 11.27148,-5.74414 c -0.48636,-4.11737 0.69044,-8.14033 0.76562,-12.22461 -0.27834,-2.8871 -0.23346,-5.84411 -0.85742,-8.68164 -0.0226,-0.0737 -0.0367,-0.14885 -0.0586,-0.22266 -0.0398,-2.74242 -0.68614,-5.45056 -1.03516,-8.16992 -0.0163,-0.28343 -0.0513,-0.56463 -0.0742,-0.84766 0.38033,-2.27066 0.7662,-4.53606 0.98047,-6.83398 0.4563,-2.98204 0.0757,-5.83576 -0.49804,-8.75586 0.0108,-0.16262 0.0199,-0.33055 0.0293,-0.49414 0.10012,-0.36638 0.20132,-0.80673 0.33203,-1.36719 0.19679,-1.24888 0.20478,-2.4989 0.11329,-3.74609 0.0876,-0.48345 0.19266,-0.96418 0.33203,-1.4336 0.90611,-2.61259 1.2051,-5.35497 1.40234,-8.0957 0.0645,-1.1751 0.0987,-2.35096 0.12305,-3.52734 0.0577,-0.28391 0.11739,-0.56735 0.18945,-0.84766 0.84055,-2.74094 1.13642,-5.58628 1.31836,-8.43359 0.15168,-3.14942 0.14253,-6.30285 0.14453,-9.45508 -0.002,-3.20242 -0.007,-6.405 -0.01,-9.60742 -0.003,-3.20027 -0.004,-6.39933 -0.004,-9.59961 -0.0218,-3.95407 -0.0246,-7.90917 -0.0176,-11.86328 -0.41094,-3.52934 -1.01201,-7.02648 -1.32031,-10.56836 -0.27178,-3.04454 -0.38518,-6.02699 0.25195,-9.01953 0.65524,-3.05837 0.56125,-6.21015 0.7461,-9.33203 0.27357,-2.07792 0.12844,-4.13514 -0.11914,-6.1875 z"
       id="path3668"
       inkscape:connector-curvature="0" />
    <path
       style="display:inline;fill:#502d16;fill-opacity:1;stroke:none"
       d="m 410.16602,433.66791 -0.01,0.004 0.01,0 c -10e-5,-0.001 9e-5,-0.003 0,-0.004 z"
       id="path3666"
       inkscape:connector-curvature="0" />
    <path
       style="display:inline;fill:#502d16;fill-opacity:1;stroke:none"
       d="m 298.33594,273.95111 c -2.42658,1.5278 -4.84736,3.05213 -7.27735,4.58203 -1.40075,0.88191 -2.78918,1.75514 -4.18945,2.63672 -0.083,1.02621 -0.20313,2.0515 -0.38281,3.07813 -0.62046,3.19276 -0.86603,6.43409 -1.00781,9.67773 -0.1071,3.27006 -0.10645,6.54109 -0.0937,9.8125 -0.18056,3.63064 0.16931,7.23912 0.2832,10.85352 0.33212,2.32587 0.64572,4.64981 0.88281,6.98437 -2.75097,-0.39764 -5.47747,-0.99614 -8.24805,-1.07422 -3.28412,-0.002 -6.56774,-0.009 -9.85156,0.043 -4.06695,0.0865 -8.13257,0.26346 -12.18359,0.64844 -4.04791,0.36575 -8.05207,0.65166 -12.10352,0.69336 -4.1211,-0.28247 -8.21774,-0.78654 -12.32422,-1.22266 -3.7598,0.1667 -7.53277,0.38668 -11.22656,1.15625 -3.12896,0.59299 -6.34775,0.16053 -9.51953,0.28321 -3.20183,-0.005 -6.40364,-0.019 -9.60547,-0.008 -3.33015,0.0261 -6.66836,0.0632 -9.98047,0.44922 -3.36685,0.45141 -6.64338,1.31622 -9.98633,1.82227 -0.0543,-0.01 -0.10772,-0.0237 -0.1621,-0.0332 -3.01634,-0.5221 -6.08893,-0.36435 -9.09571,-0.92187 -2.79271,-0.68674 -5.61369,-1.04303 -8.48633,-0.95313 -2.43571,-0.24014 -4.78687,0.39524 -7.17187,0.75977 -2.95781,0.38835 -5.94537,0.43482 -8.92383,0.47852 -3.19738,0.031 -6.39432,0.0225 -9.5918,0.0195 -3.20263,-0.004 -6.40477,-0.005 -9.60742,-0.006 -3.20724,0.15693 -6.39817,-0.18828 -9.59765,-0.26758 -2.95376,0.1324 -5.8408,0.14959 -8.75391,-0.36719 -3.03889,-0.62041 -6.08854,-0.87579 -9.17188,-0.55273 -3.24884,0.58632 -6.463296,0.77178 -9.744136,0.52734 -2.68875,-0.0697 -5.302678,0.44802 -7.898438,1.07617 -1.63139,0.40651 -3.286833,0.65046 -4.953125,0.81055 -1.57961,-0.13211 -3.155827,-0.30068 -4.724609,-0.54492 -2.16243,-0.32234 -4.368208,-0.80088 -6.548828,-0.96485 -2.89906,-0.21799 -0.943222,0.0863 -3.613282,0.25586 -0.596118,0.0378 -1.195778,-0.0263 -1.792968,-0.0391 -3.48432,-0.11611 -6.980006,-0.26474 -10.416016,-0.90039 -2.98149,-0.51275 -5.882828,-0.61265 -8.892578,-0.13086 -3.1468,0.35882 -6.096945,0.29967 -9.203125,-0.49414 -3.91131,0.006 -7.823075,0.0174 -11.734375,0.002 -3.43675,-5e-4 -6.873787,-0.0167 -10.310547,-0.0137 -3.1998895,-0.003 -6.3997296,-0.008 -9.5996092,-0.0137 -3.1498197,-0.002 -6.3016891,-0.0155 -9.4492188,0.12305 -3.00118,0.17971 -5.998144,0.49227 -8.871094,1.4375 -0.138888,0.0388 -0.280327,0.066 -0.419922,0.10156 -3.665038,-0.0317 -7.330932,-0.0461 -10.996093,-0.0488 -3.23653,-10e-4 -6.472465,0.001 -9.708985,0.002 -1.360296,-0.0217 -2.72453,-0.0185 -4.083984,0.0488 -5.115114,-0.82232 -10.338164,-0.97606 -15.445313,-1.91015 -6.953318,-0.83673 -13.968642,-1.37041 -20.974609,-1.28321 -4.81269,-0.0112 -9.626893,-0.0236 -14.439453,-0.0566 -3.65069,-0.0415 -7.304712,-0.087 -10.945312,-0.38476 -2.8506,-0.25831 -5.70979,-0.88676 -8.49219,0.0781 -3.04306,0.70948 -6.24603,0.12162 -9.34961,0.31055 -3.43251,0.002 -6.86436,0.006 -10.29687,0.0137 -3.93972,0.008 -7.87865,0.004 -11.81836,0.0156 -1.24723,0.001 -2.49489,-0.003 -3.74219,-0.006 -1.28951,-0.14903 -2.57532,-0.33479 -3.86133,-0.57422 -3.18579,-0.62764 -6.42435,-0.84549 -9.66211,-0.97461 -1.9541,-0.19481 -3.86586,0.1004 -5.77148,0.45117 -3.53926,-0.51537 -7.05056,-0.65952 -10.64063,-0.52148 -3.27192,-0.0153 -6.54253,-0.0105 -9.81445,0.002 -3.41642,0.0227 -6.83454,0.0629 -10.24805,0.2168 -3.47002,0.1586 -7.02333,0.6378 -10.45898,0.0723 -3.22185,-0.5177 -6.50572,-0.0864 -9.73828,0.21875 -3.18541,0.44469 -6.3061,1.33529 -9.54688,1.08789 -3.51598,0.002 -7.03287,0.006 -10.54883,0.0117 -4.09044,0.005 -8.18103,-0.003 -12.27148,0.0137 -4.64793,0.005 -9.29563,0.0214 -13.94336,-0.0273 -3.20069,0 -6.40281,-10e-4 -9.60351,0.002 -3.20113,0.003 -6.40044,0.01 -9.60157,0.0156 -3.11806,0.002 -6.23994,0.018 -9.35547,-0.12696 -2.80979,-0.18089 -5.61574,-0.48605 -8.26562,-1.50781 -3.02253,-1.00663 -6.30216,-1.39005 -9.42383,-1.96289 -2.89131,-0.39002 -5.65809,-1.22458 -8.5039,-1.75195 -2.73313,-0.3306 -5.14885,-0.34269 -7.71485,0.88281 -3.13128,0.36564 -6.16771,1.1863 -9.28125,1.5332 -2.70391,0.19284 -5.37526,0.54906 -8.06445,0.19727 0.77385,-0.42478 0.62095,-0.43652 -0.3086,-0.18945 -0.78514,-0.89191 -2.01515,-0.90968 -3.88085,-1.23047 -2.76504,0.0419 -5.11851,-1.93117 -7.95508,-1.44532 -3.34507,-0.77713 -6.63432,-1.58143 -10.07422,-1.85937 -2.79373,-0.50796 -5.53881,-0.86085 -8.39258,-0.81445 -2.5401,-0.11443 -4.83427,0.38639 -7.33789,0.76367 -1.23819,0.25481 -2.40621,0.66068 -3.56836,1.08594 -2.67746,-0.86015 -5.7436,-1.02592 -8.50195,-0.60547 -3.37874,0.62154 -6.73939,0.72929 -10.16797,0.93945 -5.52236,0.69162 -7.13479,1.55161 -10.58203,3.98828 0.2537,-2.51278 0.42575,-5.02584 0.25,-7.57031 -0.35391,-3.13355 -0.60279,-6.2733 -0.73047,-9.42383 -0.10199,-3.1509 -0.10147,-6.30484 -0.10547,-9.45703 0,-3.19728 0.002,-6.39452 0.004,-9.5918 0.002,-3.19993 0.002,-6.39968 0.002,-9.59961 10e-5,-3.19939 10e-6,-6.39826 0,-9.59765 -0.0536,-3.05511 -0.13078,-6.04581 0.51953,-9.03711 0.20557,-2.44352 0.66403,-4.85272 0.85937,-7.30664 -0.286,-2.62109 -0.003,-5.27443 0.0899,-7.9043 0.22807,-3.04427 1.01646,-5.04803 0.82422,-8.20117 -0.2055,-3.11963 -0.46913,-6.191 -1.10547,-9.25195 -0.33495,-1.48683 -0.56297,-2.98998 -0.73047,-4.5 -3.63546,1.79572 -7.68533,3.80043 -11.24609,5.55859 0.18735,1.64993 0.44359,3.2916 0.81054,4.91601 0.599,3.00155 0.80214,6.03165 0.99805,9.08399 0.0691,2.7673 -0.85874,5.3421 -0.86914,8.10742 -0.10641,2.61437 -0.31235,5.23212 -0.12305,7.84766 -0.23553,2.40741 -0.68316,4.78098 -0.91992,7.1875 -0.5485,3.06263 -0.38962,6.149 -0.39062,9.25 2e-5,3.19937 1.4e-4,6.39829 0,9.59765 0,3.19974 4e-5,6.39987 -0.002,9.59961 -0.002,3.19814 -0.008,6.39561 -0.006,9.59375 0.006,3.16841 0.0109,6.33724 0.12891,9.50391 0.14437,3.15554 0.41966,6.2989 0.75781,9.43945 0.19634,3.34284 -0.22027,6.63342 -0.58789,9.94141 -0.22552,0.37668 -0.43125,0.76942 -0.4707,0.91797 -0.10288,0.38623 -0.0705,0.79722 -0.10547,1.19531 0.12274,0.5942 0.31585,1.15346 0.55078,1.69141 l -3.02148,2.19531 c 1.36373,-0.0987 2.72717,-0.21517 4.08984,-0.34375 0.81504,1.10643 1.84989,2.06653 2.99219,2.88672 2.13647,1.78598 4.45654,3.04172 7.3125,2.98632 2.88947,-0.0812 5.25644,-1.88785 8.08789,-2.37304 1.28169,-0.46727 2.53587,-0.6431 3.84375,-1.00586 0.74456,-0.20652 1.43463,-0.59805 2.19336,-0.74414 0.40981,-0.0789 0.83505,-0.0392 1.25195,-0.0586 2.31652,-0.13045 4.29539,-0.34684 6.375,0.96485 3.00444,0.61006 5.91362,1.1813 9.00977,0.84765 3.18735,-0.03 6.37494,-0.0923 9.5625,-0.0762 3.2805,0.0813 6.35528,0.67798 9.53906,1.44727 3.15751,0.62475 6.41714,0.37357 9.58789,0.99804 3.23073,0.54759 6.39529,1.1613 9.69726,0.86524 3.19929,6e-5 6.39837,0.001 9.59766,0.002 3.19955,2.2e-4 6.39812,3.3e-4 9.59766,0 3.20221,-10e-4 6.40535,-0.002 9.60742,-0.0351 3.1977,-0.0405 6.39382,-0.11377 9.58984,-0.22657 3.23595,-0.0729 6.41431,0.43376 9.6543,0.0469 3.21042,-0.25348 6.39187,-0.70324 9.54102,-1.38672 l 9.59765,0 c 3.19925,-10e-6 6.39841,-7.1e-4 9.59766,0 3.19919,0.001 6.39847,0.003 9.59765,0.008 3.20351,0.004 6.40789,0.0154 9.61133,-0.0117 3.23037,-0.0439 6.46801,-0.10732 9.67774,-0.50976 3.17207,-0.44177 6.28128,-1.32983 9.50781,-1.08399 3.20442,0.003 6.40887,0.008 9.61328,0.0156 3.16921,0.006 6.33956,0.0241 9.50781,-0.0684 2.79907,-0.11912 5.64679,-0.2454 8.31055,-1.19922 2.46755,-1.06158 5.01048,-2.05828 7.76172,-1.94336 3.07856,-0.0222 6.16321,-0.0397 9.23047,-0.33398 1.43806,-0.16889 2.8532,-0.48374 4.26953,-0.75586 3.22755,0.45604 6.47137,0.76316 9.72656,0.93945 2.86506,0.11859 5.73214,0.12852 8.59961,0.13086 1.40984,0.20456 2.82881,0.34112 4.2793,0.30078 2.79631,0.20924 5.56998,0.63164 8.33398,-0.0898 2.78408,0.23709 5.51673,0.70392 8.20899,1.46679 2.83809,0.10934 5.68665,0.26869 8.46093,0.92579 3.07374,0.69929 6.12283,0.70912 9.27344,0.61132 3.20274,0.002 6.40469,0.006 9.60742,0.004 3.19842,-0.006 6.3988,-0.0112 9.59571,-0.12109 2.98144,-0.12432 5.957171,-0.33326 8.921871,-0.67969 2.91797,-0.21067 5.704763,1.31654 8.675781,0.78906 3.18239,0.009 6.365444,0.0157 9.544922,0.16797 2.981399,0.17308 5.949844,0.47004 8.902344,0.92578 0.76532,-0.0817 1.526202,-0.28605 2.294922,-0.24805 1.6227,0.0801 3.127019,0.75821 4.761719,0.0488 1.879994,-0.47176 3.768157,-0.77193 5.6875,-0.86914 4.114051,0.61344 8.246123,1.07668 12.396484,1.35742 3.79324,-0.0623 7.593178,-0.54759 11.347656,-1.09375 0.429123,-0.11098 0.859226,-0.21062 1.289063,-0.31445 4.165804,0.0145 8.339397,0.0188 12.492187,0.37305 3.17536,0.34082 6.311164,1.14161 9.4960941,1.16601 2.7731496,-0.0922 5.541681,-0.25913 8.3066407,-0.49218 3.1328695,-0.0473 6.2308766,1.03938 9.4101562,0.70703 3.21416,0.1799 6.416081,0.50719 9.568359,1.18554 3.18763,0.55685 6.440176,0.19461 9.666016,0.29883 3.20086,0.004 6.402716,0.0142 9.603516,-0.0117 3.241758,-0.0425 6.489277,-0.10395 9.710937,-0.50195 3.38927,-0.46254 6.719816,-1.34504 10.166016,-1.12891 2.428115,-0.056 4.867709,-0.1042 7.287109,-0.34179 1.386672,0.11419 2.77532,0.2084 4.166016,0.27343 3.23229,0.12007 6.467162,0.11656 9.701172,0.11719 3.218248,-0.0369 6.440067,0.0778 9.654297,-0.10351 3.094268,-0.42851 6.154866,-1.09099 9.285156,-1.17969 2.79339,0.32303 5.561956,0.78841 8.367186,1.02344 3.20507,0.35083 6.36834,-0.3892 9.5293,-0.8086 2.86473,-0.58681 5.63108,-0.17641 8.46094,0.30078 3.20826,0.5218 6.45546,0.75483 9.68945,0.39454 3.24706,-0.604 6.52115,-0.93129 9.81641,-1.10157 3.87285,-0.16359 7.75141,-0.15598 11.62695,-0.15625 3.36431,0.2058 6.60896,1.03275 9.99219,0.92774 0.7667,-0.0441 1.5271,-0.12833 2.28515,-0.23047 2.59681,0.48354 5.13542,1.17742 7.73438,1.66406 3.24308,0.55137 6.41807,1.16942 9.73242,0.82227 3.17878,-0.0729 6.362,-0.18343 9.51367,-0.63672 2.61973,-0.39613 5.11672,-0.97952 7.75586,-0.28516 2.83401,0.45395 5.58359,-0.17221 8.4375,0.31055 2.24424,-0.21978 1.09755,-0.17698 3.43945,-0.10938 2.40251,-0.1539 4.7323,-1.15402 7.17188,-0.88281 3.36399,-0.0293 6.72808,-0.0728 10.08789,-0.25976 3.30136,-0.15376 6.5537,-0.4175 9.70898,0.8125 3.15025,0.43463 6.23232,1.33148 9.43555,1.09179 2.96243,-0.003 5.92569,0.002 8.88672,-0.10156 2.44439,-0.11593 4.83761,-0.56101 7.26953,-0.63281 3.20664,-0.69146 6.21756,-1.98063 9.47266,-2.43555 2.94601,0.0126 5.89664,0.0482 8.83984,-0.10547 0.98928,-0.57676 2.01774,-1.13205 3.05469,-1.67773 -0.009,0.46214 -0.0171,0.92465 -0.0293,1.38672 -0.15791,1.25115 -0.20192,2.51516 -0.19141,3.77539 10e-4,0.13447 -0.0924,0.46714 0.0254,0.40234 0.0236,-0.013 0.0429,-0.0222 0.0664,-0.0352 0.16392,0.92584 1.08779,-0.13859 4.4043,-2.20312 7.1848,-3.21901 6.88411,-0.95147 6.98047,-5.84375 0.009,-0.57484 0.005,-1.14974 0.0117,-1.72461 0.026,-0.29722 0.0494,-0.59527 0.0742,-0.89258 -6.9e-4,-0.18421 -0.003,-0.3685 -0.004,-0.55273 4.86216,-2.63545 6.65698,-4.66289 -0.0195,-6.08203 0.003,-0.78978 0.0131,-1.5794 0.0156,-2.36914 0.502,-4.43249 0.21316,-8.92848 0.13086,-13.38282 -0.33785,-3.94147 0.11601,-7.7933 0.63672,-11.6875 0.49503,-3.48609 0.85228,-6.9366 0.29492,-10.42383 -0.57752,-2.83259 -0.81378,-5.70971 -0.95117,-8.59179 -0.0229,-0.62802 -0.0271,-1.25648 -0.0391,-1.88477 z"
       id="path3664"
       inkscape:connector-curvature="0" />
    <path
       style="display:inline;fill:#502d16;fill-opacity:1;stroke:none"
       d="m -419.29102,332.16205 c -0.18533,0.12655 -0.33244,0.236 -0.52343,0.36523 -0.14922,0.10096 0.26123,-0.25863 0.42578,-0.33203 0.0316,-0.0141 0.0658,-0.02 0.0976,-0.0332 z"
       id="path5774"
       inkscape:connector-curvature="0" />
    <path
       style="display:inline;fill:#333333;fill-opacity:1;stroke:none"
       d="m 592.52344,267.42572 c 0.49505,-0.28869 0.93663,-0.53682 1.46875,-0.85351 0.3368,-0.20041 -0.71087,0.33674 -1.03907,0.55078 -0.20537,0.13393 -0.30921,0.21371 -0.42968,0.30273 z"
       id="path3703"
       inkscape:connector-curvature="0" />
    <path
       style="display:inline;fill:#333333;fill-opacity:1;stroke:none"
       d="m 585.24219,307.34174 c -3.63678,2.50743 -7.27023,5.01082 -10.92383,7.52929 0.0768,0.51122 0.16014,1.02242 0.2207,1.53516 0.2193,3.02378 0.21817,6.02052 1.41797,8.84766 1.6166,2.57342 4.44749,3.01591 7.24219,3.3164 3.0888,0.29096 6.19956,0.003 9.28516,0.27344 L 602.8125,321.539 c -1.8896,-0.31324 -3.80348,-0.26817 -5.71875,-0.24218 l 3.10547,-2.21094 c -2.2436,-0.21876 -4.4885,-0.43299 -6.7168,-0.78125 l -3.57617,2.52148 c -1.12918,-0.27374 -2.1595,-0.77341 -2.89648,-1.76758 -1.1259,-2.71585 -0.97066,-5.644 -1.28516,-8.52343 -0.13435,-1.06632 -0.309,-2.12975 -0.48242,-3.19336 z"
       id="path5782"
       inkscape:connector-curvature="0" />
  </g>
  <g
     inkscape:groupmode="layer"
     id="layer3"
     inkscape:label="glass"
     style="display:inline">
    <path
       style="fill:#aaccff;fill-opacity:1;stroke:none"
       d="m 617.36328,300.05356 c -4.10505,-3.88583 -8.17164,-7.73472 -12.30209,-11.64528 -14.95421,10.63853 -30.04809,21.37121 -45.29203,32.20566 -6.75065,-12.00474 -13.54015,-24.08931 -20.37346,-36.25688 -4.49483,8.64494 -9.00919,17.3255 -13.54608,26.04276 -0.85823,-26.06075 -1.72622,-52.391 -2.60247,-79.02097 -7.79488,18.3291 -15.63921,36.78205 -23.54845,55.38812 -3.4749,-8.2302 -6.96012,-16.48528 -10.45647,-24.76772 -5.22982,17.20451 -10.47807,34.46749 -15.77013,51.87733 -10.62449,-20.47285 -21.30033,-41.04248 -32.07781,-61.80525 -5.78168,8.51213 -11.57495,17.04588 -17.38866,25.6084 -4.41176,-2.13789 -8.85984,-4.29304 -13.27632,-6.43312 l 0,160.1336 206.63397,0 0,-131.32665 z"
       id="path3558"
       inkscape:connector-curvature="0" />
    <path
       style="fill:#aaccff;fill-opacity:1;stroke:none"
       d="m 295.83008,270.77142 c -1.29806,0.81727 -2.59157,1.63135 -3.89063,2.44922 -14.45231,9.09907 -28.88234,18.18467 -43.2207,27.21094 -10.61528,-12.48188 -21.19441,-24.92402 -31.72266,-37.30469 -15.08829,11.61584 -30.09437,23.16795 -45.02734,34.66211 -13.10813,-13.69256 -26.12102,-27.28311 -39.08594,-40.82226 -7.33204,15.68929 -14.61528,31.27622 -21.86328,46.79297 C 106.23952,289.88676 101.4871,276.08766 96.759766,262.3515 78.937777,273.11548 61.259698,283.7922 43.710938,294.38861 30.548137,260.72737 17.609779,227.65658 4.8222656,194.99603 c -15.3115786,33.36411 -30.3489176,66.12831 -45.1230466,98.31446 -8.142006,-17.77469 -16.191664,-35.35356 -24.154297,-52.75 -10.798508,14.1225 -21.47388,28.08858 -32.03711,41.91211 -1.721842,-10.8027 -3.431928,-21.52573 -5.130862,-32.17383 -6.17798,11.83488 -12.29909,23.55627 -18.36718,35.16797 -15.42118,-29.1768 -30.41369,-57.54165 -45.07422,-85.27344 -10.03575,23.36681 -19.83063,46.1845 -29.4043,68.5 -4.79371,-19.60285 -9.47439,-38.79902 -14.04492,-57.60742 -18.01637,11.133 -35.5828,21.97027 -52.7168,32.52148 -22.06761,-26.69116 -43.0476,-52.0827 -63.00195,-76.25 -1.46076,0.72334 -2.91871,1.44496 -4.3711,2.16406 -12.39095,6.13505 -24.4758,12.11687 -36.24609,17.93946 -20.23047,10.0077 -39.25032,19.40566 -57.56836,28.45117 l 0,111.44531 718.24805,0 0,-56.58594 z"
       id="path3556"
       inkscape:connector-curvature="0" />
    <path
       style="fill:#aaccff;fill-opacity:1;stroke:none"
       d="m -325.04688,170.37103 c -0.005,0.003 -0.0234,0.01 -0.0234,0.01 l 0.0391,0.01 c -0.005,-0.006 -0.0106,-0.0134 -0.0156,-0.0195 z"
       id="rect4310"
       inkscape:connector-curvature="0" />
  </g>
  <g
     inkscape:groupmode="layer"
     id="layer4"
     inkscape:label="window"
     style="display:inline">
    <path
       transform="translate(0,27.637839)"
       style="display:inline;fill:#ff0000;fill-opacity:1;stroke:none"
       id="path5842"
       d="m -376.57791,238.26223 c -0.65734,4.84935 -1.14939,9.69331 -0.81269,14.58174 0.37694,3.58414 0.69861,7.17069 0.8641,10.77104 0.22767,3.11944 -0.0999,6.27168 0.30382,9.37379 0.0965,0.1993 0.37212,1.16018 0.87863,1.14261 0.15848,-0.005 0.49885,-0.38553 0.35721,-0.31422 -1.64219,0.82682 -3.17859,1.86965 -4.87144,2.58708 -0.68055,0.28841 0.91833,-1.15864 1.36249,-1.74943 1.31303,-2.1497 2.93912,-3.95874 4.84979,-5.57506 2.2748,-1.79599 4.25294,-3.91221 6.39531,-5.85396 2.07865,-2.21428 4.1706,-4.44764 6.15081,-6.75763 1.48415,-2.35165 3.30949,-4.47902 4.72532,-6.87004 1.5138,-2.66627 2.05659,-2.52062 6.81649,-3.54885 0.25995,-0.0562 0.41407,3.24799 0.41981,3.37994 0.044,3.09842 -0.0131,6.19733 -0.0385,9.29576 -0.0249,3.22279 -0.0299,6.44568 -0.0333,9.66855 -10e-4,1.60229 -10e-4,3.20457 -0.002,4.80686 0,0 -5.64217,2.87474 -5.64217,2.87474 l 0,0 c 1.8e-4,-1.60248 2.9e-4,-3.20496 0.002,-4.80743 0.003,-3.22425 0.008,-6.44851 0.0316,-9.67268 0.0241,-3.08733 0.0766,-6.17501 0.0402,-9.26238 -0.0289,-0.78868 -0.035,-1.54382 -0.13957,-2.32584 -0.0342,-0.25573 -0.35281,-0.59956 -0.15021,-0.75931 9.69832,-7.64671 5.68702,-4.18789 4.49034,-2.23712 -1.32581,2.48109 -3.29134,4.53813 -4.69195,6.98233 -1.92936,2.37132 -4.13741,4.52223 -6.11411,6.84701 -2.19338,1.87926 -4.08022,4.09074 -6.37624,5.8537 -1.86511,1.63847 -3.70543,3.20574 -4.89976,5.45448 -0.46689,0.59793 -0.66927,1.44274 -1.29519,1.87137 -3.35057,2.2945 -6.10672,5.82626 -7.87448,1.92508 -0.45369,-3.11655 -0.10232,-6.29072 -0.32277,-9.43033 -0.15326,-3.59877 -0.45702,-7.18499 -0.83612,-10.76696 -0.35423,-4.92208 0.12211,-9.78852 0.73303,-14.67934 0,0 5.67962,-2.8055 5.67962,-2.8055 z"
       inkscape:connector-curvature="0" />
    <path
       transform="translate(0,27.637839)"
       style="display:inline;fill:#ff0000;fill-opacity:1;stroke:none"
       id="path5844"
       d="m -327.09905,249.5162 c 4.18677,1.45148 8.39775,2.89613 12.67785,4.03864 1.71115,0.40035 3.45516,0.31476 5.16765,0.67181 0,0 -5.20483,3.63752 -5.20483,3.63752 l 0,0 c -1.72557,-0.27882 -3.48697,-0.26043 -5.18398,-0.72948 -4.2516,-1.24504 -8.4639,-2.62748 -12.67007,-4.02251 0,0 5.21338,-3.59598 5.21338,-3.59598 z"
       inkscape:connector-curvature="0" />
    <path
       transform="translate(0,27.637839)"
       style="display:inline;fill:#ff0000;fill-opacity:1;stroke:none"
       id="path5846"
       d="m -328.74274,266.6659 c 4.89778,0.26471 9.74566,-0.45146 14.59896,-0.98305 2.44057,-0.25158 4.86535,-0.53157 7.31196,-0.3025 0,0 -5.15274,3.68517 -5.15274,3.68517 l 0,0 c -2.41735,-0.13387 -4.81584,0.13029 -7.22139,0.38004 -4.87436,0.53109 -9.74545,1.15753 -14.66211,0.9441 0,0 5.12532,-3.72376 5.12532,-3.72376 z"
       inkscape:connector-curvature="0" />
    <path
       transform="translate(0,27.637839)"
       style="display:inline;fill:#ff0000;fill-opacity:1;stroke:none"
       id="path5848"
       d="m -325.54342,282.66252 c 4.43312,0.31228 8.7899,-0.59736 13.21164,-0.50241 2.08224,-0.0781 3.9888,-0.58248 5.90589,-1.33652 0,0 -4.99977,3.91793 -4.99977,3.91793 l 0,0 c -1.94714,0.71621 -3.94856,1.09578 -6.03173,1.13098 -4.41376,-0.0355 -8.78559,0.78791 -13.21134,0.51377 0,0 5.12531,-3.72375 5.12531,-3.72375 z"
       inkscape:connector-curvature="0" />
    <path
       transform="translate(0,27.637839)"
       style="display:inline;fill:#ff0000;fill-opacity:1;stroke:none"
       id="path5850"
       d="m -309.04518,249.38967 c 0.57235,4.87154 0.96995,9.75993 1.22724,14.65755 0.1724,3.58977 0.19656,7.18405 0.20769,10.77719 0.003,3.19798 -0.003,6.39595 -0.006,9.59392 -0.003,1.46637 -0.003,2.93269 0.004,4.39904 0,0 -5.65659,2.88182 -5.65659,2.88182 l 0,0 c 0.009,-1.4688 0.01,-2.93758 0.01,-4.40641 0.003,-3.19762 0.009,-6.39525 0.008,-9.59288 -0.006,-3.58746 -0.0203,-7.17598 -0.1735,-10.76082 -0.23376,-4.88076 -0.59319,-9.75691 -1.22945,-14.60353 0,0 5.6081,-2.94588 5.6081,-2.94588 z"
       inkscape:connector-curvature="0" />
    <path
       transform="translate(0,27.637839)"
       style="display:inline;fill:#ff0000;fill-opacity:1;stroke:none"
       id="path5852"
       d="m -280.42429,251.0242 c 0.26808,4.98199 -0.34431,9.92441 -0.53957,14.88573 0.0124,3.95245 0.26575,7.89878 0.4032,11.84803 0.28388,2.57778 -0.0774,5.07035 -0.56258,7.59058 0,0 -5.70501,2.77039 -5.70501,2.77039 l 0,0 c 0.48616,-2.48401 0.95436,-4.92031 0.64135,-7.47048 -0.12779,-3.96522 -0.36521,-7.92696 -0.40869,-11.89444 0.16125,-4.95052 0.90434,-9.8792 0.52656,-14.85367 0,0 5.64474,-2.87614 5.64474,-2.87614 z"
       inkscape:connector-curvature="0" />
    <path
       transform="translate(0,27.637839)"
       style="display:inline;fill:#ff0000;fill-opacity:1;stroke:none"
       id="path5854"
       d="m -285.78447,258.74544 c -2.18928,-0.33627 -4.34892,-0.83981 -6.56347,-0.3612 -0.61991,0.13397 -2.3147,0.99215 -1.79664,0.62629 9.90807,-6.99742 3.18021,-1.49316 2.71941,-1.10628 -2.12123,2.24525 -3.627,4.73176 -4.42161,7.70696 -0.65895,2.83418 -0.0457,5.63209 1.384,8.1152 1.19092,2.11043 2.72052,3.8693 4.94981,4.85615 2.14821,0.79507 4.26425,0.77324 6.47445,0.37545 0,0 -5.07408,3.80998 -5.07408,3.80998 l 0,0 c -2.28955,0.31603 -4.52279,0.19554 -6.69561,-0.68423 -2.27637,-1.13815 -3.90828,-2.97164 -5.15025,-5.18667 -1.48888,-2.60762 -2.21768,-5.55713 -1.60476,-8.54824 0.73192,-3.10219 2.17886,-5.64952 4.27819,-8.05532 5.47973,-5.21684 9.88019,-6.55352 16.71395,-5.14407 0,0 -5.21339,3.59598 -5.21339,3.59598 z"
       inkscape:connector-curvature="0" />
    <path
       transform="translate(0,27.637839)"
       style="display:inline;fill:#ff0000;fill-opacity:1;stroke:none"
       id="path5856"
       d="m -264.65322,260.08773 c 1.11995,-0.62685 2.13283,-1.50416 3.35984,-1.88055 0.84015,-0.25771 -1.45286,0.98987 -2.15947,1.51233 -0.7275,0.53791 -1.44959,1.08477 -2.14147,1.66778 -1.86137,1.56849 -3.47378,3.32274 -5.02358,5.18919 -2.50668,2.85585 -3.94302,6.1682 -4.65053,9.85701 -0.55453,3.12185 -0.21868,6.27825 0.69889,9.29403 0.75156,2.82147 2.62727,4.52089 5.24415,5.60051 2.94334,0.90915 6.05137,0.92518 9.10336,0.97393 3.42447,0.35128 6.48094,-0.5943 9.55178,-2.00413 0.52764,-0.30611 2.13197,-1.18414 1.58292,-0.91835 -1.34942,0.65324 -2.55909,1.62433 -3.98674,2.08201 -0.52549,0.16847 0.81087,-0.75312 1.16408,-1.1771 0.94084,-1.12936 1.69401,-2.49873 2.43361,-3.76358 1.37074,-2.58429 1.59622,-5.49111 1.75617,-8.35567 0.21905,-2.97185 -0.43535,-5.86751 -1.93153,-8.43282 -1.69018,-2.30398 -3.89718,-3.05039 -6.48335,-3.91502 -2.53658,-0.75506 -5.09682,-1.62944 -7.70631,-0.85753 0,0 5.04932,-3.84472 5.04932,-3.84472 l 0,0 c 2.70949,-0.44939 5.31247,0.33633 7.89519,1.14726 2.72287,0.89772 4.99875,1.88801 6.73853,4.29679 1.53949,2.66532 2.29882,5.66961 2.09762,8.75919 -0.14043,2.93714 -0.3291,5.92522 -1.62573,8.62033 -3.01399,5.44237 -5.53025,7.41281 -11.94306,10.28659 -3.14648,1.32781 -6.27245,2.13795 -9.7226,1.78905 -3.11128,-0.069 -6.28389,-0.12342 -9.25097,-1.17384 -2.70911,-1.24185 -4.719,-3.10461 -5.52473,-6.06806 -0.96594,-3.09297 -1.35366,-6.35086 -0.83191,-9.56719 0.65437,-3.77581 1.99552,-7.21787 4.54159,-10.15625 4.51062,-5.65717 10.2305,-9.65952 16.68972,-12.94558 0,0 -4.92479,3.98439 -4.92479,3.98439 z"
       inkscape:connector-curvature="0" />
    <path
       transform="translate(0,27.637839)"
       style="display:inline;fill:#ff0000;fill-opacity:1;stroke:none"
       id="path5858"
       d="m -277.57416,275.08912 c -1.40131,4.77133 -1.88755,9.6137 -1.78115,14.56045 0.10562,3.36238 -0.26622,6.65817 0.0124,10.0194 -0.016,0.40828 -0.032,0.81656 -0.048,1.22484 0,0 -5.6749,2.84798 -5.6749,2.84798 l 0,0 c 0.0323,-0.38203 0.0646,-0.76406 0.0969,-1.14609 -0.29273,-3.38453 0.0515,-6.68563 -3.8e-4,-10.0698 -0.11625,-4.98941 0.32213,-9.87246 1.6834,-14.70062 0,0 5.71174,-2.73616 5.71174,-2.73616 z"
       inkscape:connector-curvature="0" />
    <path
       transform="translate(0,27.637839)"
       style="display:inline;fill:#ff0000;fill-opacity:1;stroke:none"
       id="path5860"
       d="m -391.47281,284.39637 c 0.66449,-5.00143 1.03011,-10.03388 1.25649,-15.07198 0.13885,-3.96278 0.0234,-7.90724 0.61721,-11.83425 0.42082,-2.93119 1.59568,-5.65689 2.18199,-8.55644 0.39905,-2.92039 0.7393,-5.9125 0.40214,-8.85214 -0.45732,-2.61154 -1.35292,-5.20482 -0.64933,-7.83278 2.66516,-3.99986 7.76283,-5.31364 12.29951,-5.57151 3.12911,0.0105 6.30493,-0.31241 9.40437,0.18791 2.75854,0.6868 5.56605,1.04573 8.39648,1.24515 3.4218,-0.0548 6.76741,0.44726 10.14129,0.94076 3.68466,0.55975 7.40919,0.69626 11.1289,0.78458 4.00033,0.15696 8.01653,-0.15905 11.9995,0.26986 4.14532,0.56459 8.30577,0.97695 12.48248,1.20835 3.35319,0.15857 6.71085,0.16557 10.067,0.1716 3.51402,7e-5 7.02805,-0.002 10.54207,-0.005 4.0613,0.1061 8.0924,0.81728 12.14405,1.18315 4.44107,0.13727 8.83146,0.64706 13.2396,1.17232 4.22567,0.50411 8.46494,0.49336 12.64857,1.29604 3.22265,0.61528 6.40244,1.62916 9.26088,3.25479 2.40929,1.59953 5.14027,2.17535 7.96241,2.49235 3.03694,0.27909 6.05904,-0.11712 8.95591,0.9531 2.79807,1.54147 3.50138,4.41206 3.94087,7.34765 0.10562,3.65054 0.42402,7.24407 0.96186,10.85531 0.11376,3.71111 0.44843,7.41021 0.64207,11.11759 0.15414,3.23396 0.35843,6.44709 -0.21603,9.64492 -0.41589,2.21044 -0.28429,4.42908 -0.60382,6.66222 -0.19735,1.56906 -0.10692,0.76704 -0.26868,2.40636 0,0 -5.68115,2.82819 -5.68115,2.82819 l 0,0 c 0.14682,-1.65625 0.0633,-0.84628 0.24767,-2.43021 0.32025,-2.25143 0.26674,-4.45992 0.60258,-6.69391 0.63068,-3.15466 0.46712,-6.31412 0.29965,-9.51807 -0.18274,-3.68933 -0.54341,-7.37021 -0.61483,-11.06283 -0.53544,-3.61121 -0.90895,-7.19877 -0.97311,-10.8525 -0.37429,-2.70501 -0.91372,-5.42593 -3.58654,-6.74897 -2.88675,-0.90388 -5.89978,-0.48112 -8.87842,-0.84627 -2.87925,-0.3785 -5.64012,-1.07044 -8.09872,-2.69509 -2.84455,-1.5401 -5.96264,-2.51111 -9.1405,-3.09052 -4.1677,-0.76465 -8.40115,-0.73121 -12.59984,-1.27894 -4.40706,-0.52838 -8.80487,-0.95539 -13.24012,-1.15142 -4.03808,-0.38396 -8.06169,-1.08962 -12.11917,-1.12851 -3.51694,0.002 -7.03387,0.0117 -10.55081,0.009 -3.36038,-0.0104 -6.72247,-0.0259 -10.07896,-0.20659 -4.17896,-0.25664 -8.33813,-0.70582 -12.49166,-1.23042 -3.98192,-0.33108 -7.98457,-0.0899 -11.97652,-0.23221 -3.73634,-0.10239 -7.47569,-0.26284 -11.1741,-0.84529 -3.36745,-0.49307 -6.71905,-0.88643 -10.12864,-0.89517 -2.83911,-0.22651 -5.64381,-0.64488 -8.42263,-1.27761 -3.08753,-0.37346 -6.22312,-0.13685 -9.32543,-0.0827 -1.06281,0.0821 -1.83242,0.1111 -2.87727,0.30908 -0.4265,0.0808 -1.60763,0.57592 -1.26496,0.30944 7.6187,-5.92462 4.4894,-2.69391 2.69434,-1.50808 -0.99637,2.46571 0.1189,5.07727 0.51278,7.58677 0.39876,2.9928 0.045,6.04592 -0.31305,9.0308 -0.54034,2.91635 -1.6981,5.62931 -2.20362,8.54151 -0.63181,3.90966 -0.55325,7.83212 -0.67493,11.78518 -0.22552,5.04641 -0.59991,10.08302 -1.20021,15.10006 0,0 -5.67962,2.8055 -5.67962,2.8055 z"
       inkscape:connector-curvature="0" />
    <path
       transform="translate(0,27.637839)"
       style="display:inline;fill:#ff0000;fill-opacity:1;stroke:none"
       id="path5862"
       d="m -225.14142,291.18293 c -5.42269,-0.11534 -10.81139,-0.0713 -16.20702,0.46852 -4.78083,0.84108 -9.57236,0.37657 -14.36934,0.0388 -4.93972,-0.63188 -9.90184,-1.17831 -14.86682,-1.62132 -4.38866,-0.0564 -8.68785,-0.88162 -13.01929,-1.4817 -3.30019,-0.44225 -6.63031,-0.53869 -9.95509,-0.59347 -3.13087,-0.15252 -6.29818,0.23889 -9.40157,-0.2415 -2.74527,-0.66434 -5.53663,-1.01157 -8.3495,-1.20523 -3.42093,0.0587 -6.76548,-0.44402 -10.13835,-0.9374 -3.44783,-0.51445 -6.92993,-0.68774 -10.41032,-0.78279 -3.2195,-0.0639 -6.43987,-0.0542 -9.65983,-0.0513 -3.19642,0.004 -6.39284,0.007 -9.58926,0.009 -3.64094,-0.10184 -7.30375,0.22749 -10.92361,-0.21992 -3.29516,-0.66661 -6.5145,-1.07952 -9.859,-0.7188 -2.51589,0.0716 -4.84767,0.8927 -7.24438,1.54932 0,0 5.02747,-3.86515 5.02747,-3.86515 l 0,0 c 2.40334,-0.67761 4.78684,-1.35528 7.30356,-1.45461 3.36385,-0.28247 6.61706,0.23936 9.93015,0.82702 3.61661,0.34243 7.25977,0.0881 10.88865,0.15977 3.1964,-0.002 6.39279,-0.005 9.58919,-0.009 3.22316,-0.002 6.44689,-0.01 9.66935,0.0682 3.49336,0.11254 6.98629,0.31677 10.44494,0.84788 3.36626,0.49288 6.71658,0.88686 10.12516,0.89085 2.82107,0.21983 5.6094,0.62567 8.37432,1.23469 3.10062,0.35254 6.23777,0.0481 9.3528,0.18647 3.33827,0.068 6.68088,0.19069 9.99099,0.66265 4.3152,0.62172 8.60827,1.38029 12.98081,1.47082 4.96157,0.46328 9.91881,1.01014 14.86401,1.60698 4.7741,0.33274 9.53856,0.70187 14.29474,-0.11541 5.41822,-0.52524 10.83523,-0.47264 16.27614,-0.44245 0,0 -5.1189,3.7191 -5.1189,3.7191 z"
       inkscape:connector-curvature="0" />
  </g>
  <g
     inkscape:label="Layer 1"
     inkscape:groupmode="layer"
     id="layer1"
     transform="translate(0,27.637839)"
     style="display:inline" />
</svg>
